PathFileType	4	(X/Y/Z)	s05c0201.trc
DataRate	CameraRate	NumFrames	NumMarkers	Units	OrigDataRate	OrigDataStartFrame	OrigNumFrames
200	200	5	50	mm	200	1750	2000
Frame#	Time	racr			lacr			c7			jug			rlel			rdr			llel			ldr			s2			lic			ric			lasi			rasi			rpsi			lpsi			rgt			lgt			rth1			rth2			rth3			rth4			rlfc			rmfc			rsh1			rsh2			rsh3			rsh4			rlmal			rmmal			rcal			rtoe			rmt5			lth1			lth2			lth4			lth3			llfc			lmfc			lsh1			lsh2			lsh3			lsh4			llmal			lmmal			lcal			ltoe			lmt5			SBIKE			LBIKE			RBIKE			
		X1	Y1	Z1	X2	Y2	Z2	X3	Y3	Z3	X4	Y4	Z4	X5	Y5	Z5	X6	Y6	Z6	X7	Y7	Z7	X8	Y8	Z8	X9	Y9	Z9	X10	Y10	Z10	X11	Y11	Z11	X12	Y12	Z12	X13	Y13	Z13	X14	Y14	Z14	X15	Y15	Z15	X16	Y16	Z16	X17	Y17	Z17	X18	Y18	Z18	X19	Y19	Z19	X20	Y20	Z20	X21	Y21	Z21	X22	Y22	Z22	X23	Y23	Z23	X24	Y24	Z24	X25	Y25	Z25	X26	Y26	Z26	X27	Y27	Z27	X28	Y28	Z28	X29	Y29	Z29	X30	Y30	Z30	X31	Y31	Z31	X32	Y32	Z32	X33	Y33	Z33	X34	Y34	Z34	X35	Y35	Z35	X36	Y36	Z36	X37	Y37	Z37	X38	Y38	Z38	X39	Y39	Z39	X40	Y40	Z40	X41	Y41	Z41	X42	Y42	Z42	X43	Y43	Z43	X44	Y44	Z44	X45	Y45	Z45	X46	Y46	Z46	X47	Y47	Z47	X48	Y48	Z48	X49	Y49	Z49	X50	Y50	Z50	
1750	8.7500	457.411882	1325.867357	-158.471811	472.060275	1325.132860	-415.321097	433.062100	1404.955846	-292.623133	389.189817	1248.003960	-289.385640	468.034356	1084.844385	-3.965353	663.353982	961.935977	-92.322021	459.011370	1088.663754	-603.912175	663.014931	963.185253	-499.315804	-128.150828	1169.807721	-273.051045	8.137797	1181.185584	-422.054508	26.508118	1204.756853	-142.193980	58.992420	1131.446980	-387.787055	70.458909	1142.560743	-166.604791	-92.644133	1220.811768	-236.300943	-97.457794	1219.925997	-322.674412	-14.907882	1064.226903	-106.671145	-42.250895	1083.778239	-444.746597	70.154723	969.261719	-90.769371	139.051419	912.674122	-94.276825	168.787613	829.740975	-103.001518	167.519523	934.351583	-105.940994	260.773384	714.282063	-127.952129	241.126210	702.672939	-234.570550	221.884542	612.396508	-96.984059	239.330614	525.670978	-105.224833	214.996173	443.957722	-104.686290	269.273153	526.400309	-129.999303	217.712208	306.982013	-112.934232	227.086201	334.542478	-193.015406	148.692572	274.032139	-156.331392	444.951196	251.907939	-158.909435	345.095271	228.316448	-91.701472	78.401724	1010.927318	-453.335020	163.969543	1001.697763	-446.988376	177.304220	1033.424156	-430.255993	235.889064	946.979311	-445.330841	353.365440	856.838313	-407.460767	334.368163	842.281704	-298.319487	261.812690	777.322167	-436.657877	217.729827	702.158394	-429.641108	140.378759	658.375992	-433.402484	240.091647	680.634912	-406.777053	60.600759	573.980220	-433.935147	95.452184	574.746164	-358.257760	-7.811934	589.631729	-391.569478	165.773945	351.853956	-402.587642	76.715987	419.409704	-462.467542	-264.728458	894.858547	-285.680961	-53.420829	79.320647	-474.911297	-53.395424	79.110335	-77.310642	
1751	8.7550	457.489302	1327.452399	-159.947936	471.379919	1326.229964	-416.989444	432.878716	1406.399862	-294.372643	389.182767	1249.375524	-291.040135	468.375020	1086.781172	-4.965661	663.370477	961.834353	-92.557478	458.937116	1088.624783	-604.365547	663.461307	963.359660	-500.535653	-127.463287	1169.902308	-271.780111	7.535229	1182.142189	-421.578524	28.247244	1204.410920	-141.491482	58.911978	1132.448813	-387.506334	71.653198	1142.095559	-166.372246	-90.811972	1220.336291	-235.500525	-97.193513	1220.166828	-321.152716	-14.589170	1062.986072	-106.249208	-41.895985	1085.600435	-444.571946	67.951063	966.443133	-89.771043	135.416474	908.084027	-93.015044	162.885380	824.369925	-101.785719	164.440794	929.022801	-104.797689	252.885710	707.366262	-126.822433	232.802262	696.136429	-233.439352	214.733862	605.689386	-95.924534	232.863286	519.260213	-104.017457	208.952992	437.214415	-104.054256	262.503395	520.170624	-129.383912	212.721684	300.085565	-112.570587	222.769654	327.209078	-192.491542	143.577374	268.018643	-156.074044	439.611414	241.830423	-158.788077	339.486699	219.561284	-91.552949	79.311939	1015.116174	-452.953275	165.331701	1007.740106	-447.515631	177.804741	1039.219631	-429.559386	238.002379	953.832370	-445.448475	357.400278	865.360215	-407.792119	337.722423	850.243894	-299.108368	265.848009	786.507039	-436.392650	221.598949	711.571517	-429.597951	144.091959	668.283994	-433.268696	244.103799	689.685788	-407.505667	63.519065	582.869885	-433.778489	98.128066	583.302276	-358.160913	-5.457540	597.308328	-391.327002	172.397091	362.847527	-402.774689	82.227639	428.731384	-462.548166	-264.809916	894.953010	-285.677484	-53.437013	79.349795	-474.907255	-53.399197	79.144652	-77.275533	
1752	8.7600	457.572313	1328.944735	-161.428559	470.922244	1327.487296	-418.802181	432.706965	1407.859059	-295.958134	389.203487	1250.817352	-292.638584	468.828208	1088.762007	-5.927471	663.396849	961.593859	-93.084792	458.627307	1088.624290	-604.606348	663.635544	963.468670	-501.412174	-126.779953	1169.978250	-270.586674	7.008530	1183.016952	-421.067041	29.814049	1203.823978	-141.072999	58.801879	1133.488603	-387.286358	72.768857	1141.470629	-166.226290	-89.873272	1219.958857	-234.047181	-96.881387	1220.421410	-319.684598	-14.390991	1061.842658	-105.907116	-41.492159	1087.410475	-444.413186	65.543474	963.891724	-88.800692	131.462372	903.836473	-92.022822	157.021166	819.593004	-100.373379	161.110553	924.153123	-103.559441	245.058788	701.065353	-125.816077	224.799494	690.148091	-232.617436	207.532159	599.597401	-94.882981	226.445301	513.380001	-102.852214	202.799137	431.091104	-103.251905	255.573833	514.355364	-128.803943	207.340447	293.832563	-112.208297	217.571243	320.935018	-191.941481	138.127680	262.796331	-155.830340	433.740658	232.026994	-158.758662	333.353497	211.210815	-91.446916	80.195456	1019.075357	-452.601326	166.369195	1013.208962	-447.461796	178.192473	1044.859949	-428.973440	239.873766	960.672156	-445.808903	361.068076	873.892208	-408.487574	341.983575	858.337333	-299.354260	270.111506	795.671246	-435.914975	225.694469	720.956296	-429.817268	147.916631	677.905762	-433.223370	248.167940	698.936590	-407.585083	66.708372	591.308192	-433.627106	101.403945	592.191972	-358.237146	-2.666094	604.697653	-391.453705	179.606283	373.404588	-402.892985	88.061712	437.666871	-462.638221	-264.772140	894.967179	-285.651763	-53.442973	79.366284	-474.898326	-53.406687	79.145221	-77.272102	
1753	8.7650	457.651044	1330.502540	-162.905937	470.472209	1328.943475	-420.555318	432.444997	1409.378728	-297.609945	389.224460	1252.192719	-294.171359	469.462828	1090.639494	-6.925585	663.475824	961.390633	-93.704236	458.336547	1088.790887	-604.919306	663.574983	963.546472	-501.984720	-126.020957	1170.043919	-269.495029	6.490055	1183.933804	-420.617692	31.366782	1203.043510	-140.688198	58.683587	1134.245567	-386.955189	73.740859	1140.597607	-166.184121	-89.052463	1219.723507	-232.634445	-96.542920	1220.653137	-318.328996	-14.346309	1060.740169	-105.622439	-41.126953	1089.194538	-444.302544	63.035680	961.666550	-87.925264	127.637216	900.112347	-90.775901	151.291106	815.368986	-98.907200	157.720371	919.772435	-102.283020	237.385838	695.442424	-124.644176	217.202461	684.597139	-231.404204	200.415131	594.082896	-93.869363	219.743191	507.910172	-101.948928	196.395898	425.514452	-102.384623	248.251445	508.966913	-128.036920	201.568735	288.109805	-111.805920	212.182964	315.113689	-191.338612	132.290568	257.951473	-155.715875	427.369312	222.521239	-158.618560	326.711144	203.269950	-91.361164	80.978634	1022.830519	-452.448197	167.333173	1018.489145	-447.424156	178.493145	1050.178000	-428.317464	241.836565	967.204954	-445.977407	365.202611	882.678011	-407.983644	346.143935	866.361921	-299.725699	274.338127	804.630656	-435.895047	229.700048	729.988440	-429.799053	151.834969	687.069839	-433.142029	252.366520	707.667533	-408.307579	70.161542	599.230591	-433.493894	105.006719	600.558487	-358.192106	0.348862	611.436820	-391.466210	187.123317	383.608198	-402.131787	94.407769	446.195152	-462.696529	-264.808403	894.960805	-285.648915	-53.451147	79.384843	-474.896093	-53.414860	79.121567	-77.285419	
1754	8.7700	457.716278	1331.952540	-164.424732	470.084311	1330.511595	-422.348234	432.073288	1410.903105	-299.105796	389.229486	1253.723110	-295.804842	470.183737	1092.546084	-7.859489	663.674668	961.115163	-94.397036	457.966617	1089.109044	-605.406827	663.366268	963.574673	-502.445357	-125.375070	1170.060335	-268.478330	6.056652	1184.676226	-420.207675	32.821459	1202.365690	-140.204287	58.542834	1135.245844	-386.722065	74.455480	1139.823172	-166.215952	-88.191591	1219.525444	-231.397411	-96.276091	1220.824239	-317.029926	-14.446314	1059.756153	-105.422632	-40.753257	1090.878080	-444.286768	60.493255	959.664247	-87.022311	123.816188	896.770530	-89.635456	145.772856	811.487958	-97.463352	154.388147	915.908126	-100.904610	229.863110	690.303009	-123.357681	210.398128	679.221368	-230.305252	193.318033	589.083558	-92.878212	212.817008	503.048122	-100.991303	189.726737	420.503463	-101.560849	241.327492	504.133207	-127.107382	195.550136	282.909346	-111.436808	206.548759	309.943335	-190.783027	126.069350	253.929100	-155.564675	420.658233	213.510308	-158.490060	319.598531	195.773695	-91.215349	81.750125	1026.263207	-452.462393	168.155326	1023.580304	-447.466486	178.632177	1055.179009	-427.864002	243.610504	973.671934	-446.307999	368.825333	891.414585	-408.644723	349.655778	874.745710	-298.353180	278.733220	813.359200	-435.932779	233.873624	738.643134	-429.981855	155.957423	695.882193	-433.103974	256.606773	716.275867	-408.673571	73.852328	606.751707	-433.288700	108.914904	608.541449	-358.067649	3.585063	617.427155	-391.412842	195.296266	393.703040	-402.092276	101.160636	454.239969	-462.787797	-264.807036	894.983180	-285.555744	-53.453813	79.365789	-474.887563	-53.456529	79.285540	-77.149988	
